<svg xmlns="http://www.w3.org/2000/svg" version="1.1" xmlns:xlink="http://www.w3.org/1999/xlink" xmlns:svgjs="http://svgjs.dev/svgjs" width="1500" height="1500" viewBox="0 0 1500 1500"><rect width="1500" height="1500" fill="#ffffff"></rect><g transform="matrix(0.6666666666666666,0,0,0.6666666666666666,250.17890623717562,400.6164642375169)"><svg viewBox="0 0 353 247" data-background-color="#08311f" preserveAspectRatio="xMidYMid meet" height="1049" width="1500" xmlns="http://www.w3.org/2000/svg" xmlns:xlink="http://www.w3.org/1999/xlink"><g id="tight-bounds" transform="matrix(1,0,0,1,-0.06315390172298407,-0.09999999999999432)"><svg viewBox="0 0 353.12630780344597 247.2" height="247.2" width="353.12630780344597"><g><svg viewBox="0 0 395.52 276.8769752901596" height="247.2" width="353.12630780344597"><g transform="matrix(1,0,0,1,0,166.53788740331478)"><svg viewBox="0 0 395.52 110.3390878868448" height="110.3390878868448" width="395.52"><g id="textblocktransform"><svg viewBox="0 0 395.52 110.3390878868448" height="110.3390878868448" width="395.52" id="textblock"><g><svg viewBox="0 0 395.52 59.511631608868676" height="59.511631608868676" width="395.52"><g transform="matrix(1,0,0,1,0,0)"><svg width="395.52" viewBox="3 -38.11 257.65 38.769999999999996" height="59.511631608868676" data-palette-color="#ffffff"><path d="M32.25-13.21L32.25-1.81Q30.83-1.12 29.53-0.66 28.22-0.2 26.94 0.1 25.66 0.39 24.35 0.52 23.05 0.66 21.66 0.66L21.66 0.66Q19.19 0.66 16.86 0.12 14.53-0.42 12.45-1.45 10.38-2.49 8.64-4.04 6.91-5.59 5.65-7.63 4.39-9.67 3.7-12.16 3-14.65 3-17.6L3-17.6Q3-20.78 3.76-23.44 4.52-26.1 5.86-28.23 7.2-30.37 9.07-31.97 10.94-33.57 13.18-34.64 15.43-35.72 17.96-36.25 20.48-36.79 23.14-36.79L23.14-36.79Q27.61-36.79 31.64-35.45L31.64-35.45 31.59-26.15 30.59-26.15 27.59-33.06Q25.17-33.84 22.51-33.84L22.51-33.84Q19.8-33.84 17.29-32.92 14.77-32.01 12.84-30.08 10.91-28.15 9.75-25.12 8.59-22.09 8.59-17.9L8.59-17.9Q8.59-13.96 9.72-11 10.84-8.03 12.78-6.03 14.72-4.03 17.31-3.02 19.9-2 22.8-2L22.8-2Q25.34-2 27.76-2.71L27.76-2.71 27.76-14.55 21.41-15.8 21.41-17.31 32.25-17.31 33.25-16.31 32.25-13.21ZM46.48-2.76L52.24-1 52.24 0 37.5 0 37.5-1 41.99-2.76 41.99-21.09 37.5-22.85 37.5-23.85 45.99-25.61 46.48-25.1 46.48-22.09Q50.19-25.61 56.25-25.61L56.25-25.61 56.25-20.19 55.25-19.85 51.68-21.8Q50.58-21.8 49.17-21.33 47.75-20.85 46.48-19.95L46.48-19.95 46.48-2.76ZM80.78-13.06L80.07-12.35 64.28-12.35Q64.3-9.62 65.06-7.59 65.82-5.57 67.11-4.42 68.4-3.27 69.95-2.73 71.5-2.2 73.33-2.2L73.33-2.2Q75.87-2.2 78.78-3.91L78.78-3.91 79.54-2.44Q77.49-0.63 75.43-0.01 73.38 0.61 70.77 0.61L70.77 0.61Q68.5 0.61 66.4-0.35 64.3-1.32 62.71-3.02 61.13-4.71 60.18-7.18 59.22-9.64 59.22-12.5L59.22-12.5Q59.22-15.21 59.92-17.44 60.62-19.68 61.76-21.17 62.91-22.66 64.44-23.68 65.96-24.71 67.56-25.16 69.16-25.61 70.82-25.61L70.82-25.61Q72.9-25.61 74.67-24.84 76.44-24.07 77.81-22.57 79.19-21.07 79.99-18.63 80.78-16.19 80.78-13.06L80.78-13.06ZM70.92-23.24L70.92-23.24Q68.11-23.24 66.44-21.02 64.77-18.8 64.37-14.94L64.37-14.94 76.02-14.94Q76.02-18.85 74.7-21.04 73.38-23.24 70.92-23.24ZM106.58-13.06L105.88-12.35 90.08-12.35Q90.1-9.62 90.86-7.59 91.62-5.57 92.91-4.42 94.21-3.27 95.76-2.73 97.31-2.2 99.14-2.2L99.14-2.2Q101.68-2.2 104.58-3.91L104.58-3.91 105.34-2.44Q103.29-0.63 101.24-0.01 99.19 0.61 96.57 0.61L96.57 0.61Q94.3 0.61 92.2-0.35 90.1-1.32 88.52-3.02 86.93-4.71 85.98-7.18 85.03-9.64 85.03-12.5L85.03-12.5Q85.03-15.21 85.72-17.44 86.42-19.68 87.57-21.17 88.71-22.66 90.24-23.68 91.76-24.71 93.36-25.16 94.96-25.61 96.62-25.61L96.62-25.61Q98.7-25.61 100.47-24.84 102.24-24.07 103.62-22.57 105-21.07 105.79-18.63 106.58-16.19 106.58-13.06L106.58-13.06ZM96.72-23.24L96.72-23.24Q93.91-23.24 92.24-21.02 90.57-18.8 90.18-14.94L90.18-14.94 101.82-14.94Q101.82-18.85 100.51-21.04 99.19-23.24 96.72-23.24ZM119.33-2.76L123.57-1 123.57 0 110.34 0 110.34-1 114.83-2.76 114.83-21.09 110.34-22.85 110.34-23.85 118.84-25.61 119.33-25.1 119.33-22.14Q121.06-23.75 123.38-24.68 125.7-25.61 127.94-25.61L127.94-25.61Q131.22-25.61 133.38-23.61 135.54-21.61 135.54-17.65L135.54-17.65 135.54-2.76 140.03-1 140.03 0 126.77 0 126.77-1 131.04-2.76 131.04-16.16Q131.04-19.68 129.79-21.04 128.53-22.41 125.48-22.41L125.48-22.41Q121.84-22.41 119.33-20.24L119.33-20.24 119.33-2.76ZM173.03-13.21L173.03-1.81Q171.62-1.12 170.31-0.66 169.01-0.2 167.72 0.1 166.44 0.39 165.14 0.52 163.83 0.66 162.44 0.66L162.44 0.66Q159.97 0.66 157.64 0.12 155.31-0.42 153.23-1.45 151.16-2.49 149.43-4.04 147.69-5.59 146.44-7.63 145.18-9.67 144.48-12.16 143.79-14.65 143.79-17.6L143.79-17.6Q143.79-20.78 144.54-23.44 145.3-26.1 146.64-28.23 147.99-30.37 149.85-31.97 151.72-33.57 153.97-34.64 156.21-35.72 158.74-36.25 161.27-36.79 163.93-36.79L163.93-36.79Q168.4-36.79 172.42-35.45L172.42-35.45 172.38-26.15 171.37-26.15 168.37-33.06Q165.95-33.84 163.29-33.84L163.29-33.84Q160.58-33.84 158.07-32.92 155.55-32.01 153.63-30.08 151.7-28.15 150.54-25.12 149.38-22.09 149.38-17.9L149.38-17.9Q149.38-13.96 150.5-11 151.62-8.03 153.56-6.03 155.51-4.03 158.09-3.02 160.68-2 163.59-2L163.59-2Q166.13-2 168.54-2.71L168.54-2.71 168.54-14.55 162.19-15.8 162.19-17.31 173.03-17.31 174.04-16.31 173.03-13.21ZM187.02-2.76L191.51-1 191.51 0 178.01 0 178.01-1 182.53-2.76 182.53-33.59 178.01-35.35 178.01-36.35 186.53-38.11 187.02-37.6 187.02-2.76ZM207.72-25.61L207.72-25.61Q210.5-25.61 212.73-24.66 214.95-23.71 216.49-21.98 218.02-20.26 218.84-17.85 219.66-15.43 219.66-12.5L219.66-12.5Q219.66-9.59 218.85-7.18 218.05-4.76 216.51-3.03 214.97-1.29 212.75-0.34 210.53 0.61 207.72 0.61L207.72 0.61Q204.89 0.61 202.67-0.34 200.45-1.29 198.91-3.03 197.37-4.76 196.56-7.17 195.76-9.57 195.76-12.5L195.76-12.5Q195.76-15.43 196.58-17.85 197.39-20.26 198.93-21.98 200.47-23.71 202.69-24.66 204.91-25.61 207.72-25.61ZM202.4-20.43L202.4-20.43Q200.52-17.38 200.52-12.5L200.52-12.5Q200.52-10.08 201-8.07 201.47-6.05 202.39-4.6 203.3-3.15 204.65-2.34 205.99-1.54 207.72-1.54L207.72-1.54Q209.46-1.54 210.82-2.34 212.19-3.15 213.13-4.6 214.07-6.05 214.57-8.07 215.07-10.08 215.07-12.5L215.07-12.5Q215.07-14.89 214.57-16.91 214.07-18.92 213.13-20.37 212.19-21.83 210.82-22.64 209.46-23.46 207.72-23.46L207.72-23.46Q204.25-23.46 202.4-20.43ZM251.15 0.05L248.44 0.61 241.22-18.31 235.06 0.05 232.35 0.61 224.35-22.41 221.15-24 221.15-25 233.11-25 233.11-24 229.06-22.41 234.4-5.96 240.8-25 243.46-25 250.3-6.45 254.69-22.41 250.61-24 250.61-25 260.65-25 260.65-24 257.35-22.34 251.15 0.05Z" opacity="1" transform="matrix(1,0,0,1,0,0)" fill="#000000" class="wordmark-text-0" data-fill-palette-color="primary" id="text-0"></path></svg></g></svg></g><g transform="matrix(1,0,0,1,161.96761877571018,73.56089955256395)"><svg viewBox="0 0 71.58476244857961 36.77818833428084" height="36.77818833428084" width="71.58476244857961"><g transform="matrix(1,0,0,1,0,0)"><svg width="71.58476244857961" viewBox="0.35 -37.65 94.39 48.5" height="36.77818833428084" data-palette-color="#d2dbc8"><path d="M11.75-35.25Q14.75-35.25 17.05-34.2 19.35-33.15 21.3-31.05L21.3-31.05 18.35-27.65Q16.8-29.05 15.33-29.75 13.85-30.45 12.2-30.45L12.2-30.45Q10.3-30.45 9.2-29.28 8.1-28.1 8.1-26.2L8.1-26.2Q8.1-24.3 9.25-23.1 10.4-21.9 13.75-20.6L13.75-20.6Q18.05-18.85 20.08-16.5 22.1-14.15 22.1-9.85L22.1-9.85Q22.1-6.9 20.75-4.48 19.4-2.05 16.88-0.65 14.35 0.75 11 0.75L11 0.75Q7.55 0.75 5-0.48 2.45-1.7 0.35-3.95L0.35-3.95 3.55-7.45Q5.35-5.85 7-5 8.65-4.15 10.6-4.15L10.6-4.15Q12.9-4.15 14.18-5.58 15.45-7 15.45-9.45L15.45-9.45Q15.45-11.6 14.33-12.98 13.2-14.35 10.15-15.5L10.15-15.5Q5.55-17.35 3.53-19.75 1.5-22.15 1.5-25.75L1.5-25.75Q1.5-28.5 2.83-30.65 4.15-32.8 6.5-34.02 8.85-35.25 11.75-35.25L11.75-35.25ZM38.45-27.15Q41.3-27.15 42.95-25.1 44.6-23.05 44.6-19.6L44.6-19.6 44.6 0 38.45 0 38.45-18.9Q38.45-20.8 37.92-21.63 37.4-22.45 36.4-22.45L36.4-22.45Q34.3-22.45 32.25-18.5L32.25-18.5 32.25 0 26.1 0 26.1-37 32.25-37.65 32.25-23.3Q33.5-25.25 34.97-26.2 36.45-27.15 38.45-27.15L38.45-27.15ZM59.55-27.15Q64.55-27.15 67.32-23.65 70.09-20.15 70.09-13.25L70.09-13.25Q70.09-6.65 67.3-2.95 64.5 0.75 59.55 0.75L59.55 0.75Q54.59 0.75 51.8-2.88 49-6.5 49-13.25L49-13.25Q49-19.95 51.8-23.55 54.59-27.15 59.55-27.15L59.55-27.15ZM59.55-22.5Q57.4-22.5 56.4-20.38 55.4-18.25 55.4-13.25L55.4-13.25Q55.4-8.2 56.4-6.08 57.4-3.95 59.55-3.95L59.55-3.95Q61.7-3.95 62.7-6.08 63.7-8.2 63.7-13.25L63.7-13.25Q63.7-18.3 62.7-20.4 61.7-22.5 59.55-22.5L59.55-22.5ZM86.84-27.15Q90.74-27.15 92.74-23.58 94.74-20 94.74-13.3L94.74-13.3Q94.74-6.8 92.47-3.03 90.19 0.75 86.14 0.75L86.14 0.75Q82.94 0.75 80.79-2.1L80.79-2.1 80.79 10.15 74.64 10.85 74.64-26.45 80.09-26.45 80.34-23.25Q81.64-25.25 83.24-26.2 84.84-27.15 86.84-27.15L86.84-27.15ZM84.49-3.95Q86.39-3.95 87.39-6.13 88.39-8.3 88.39-13.25L88.39-13.25Q88.39-18.45 87.54-20.5 86.69-22.55 84.89-22.55L84.89-22.55Q82.59-22.55 80.79-19.25L80.79-19.25 80.79-6.45Q82.39-3.95 84.49-3.95L84.49-3.95Z" opacity="1" transform="matrix(1,0,0,1,0,0)" fill="#000000" class="slogan-text-1" data-fill-palette-color="secondary" id="text-1"></path></svg></g></svg></g></svg></g></svg></g><g transform="matrix(1,0,0,1,98.0482599764917,0)"><svg viewBox="0 0 199.42348004701657 152.4886194596195" height="152.4886194596195" width="199.42348004701657"><g><svg xmlns="http://www.w3.org/2000/svg" xmlns:xlink="http://www.w3.org/1999/xlink" version="1.1" x="8" y="0" viewBox="5.143999737206992 13.024 88.51414781359473 73.586" enable-background="new 0 0 100 100" xml:space="preserve" height="152.4886194596195" width="183.42348004701657" class="icon-icon-0" data-fill-palette-color="accent" id="icon-0"><path fill="#000000" d="M49.702 86.61L50.62 84.736C51.015 83.925 58.901 67.858 65.691 58.125 58.495 63.996 52.835 73.949 52.766 74.072L50.649 77.83 50.783 73.518C50.791 73.28 51.754 49.57 71.915 38.325 79.065 34.336 82.616 30.152 81.914 26.543L81.407 23.938 83.569 25.478C89.523 29.717 93.382 38.225 93.644 47.681 93.919 57.619 90.171 66.678 83.616 71.917 69.831 82.929 52.489 86.114 51.757 86.245zM74.636 50.941L71.085 54.698C65.296 60.82 56.445 77.878 53.509 83.695 58.569 82.485 71.698 78.723 82.293 70.258 88.332 65.434 91.783 57.014 91.527 47.737 91.308 39.888 88.488 32.784 84.038 28.598 83.427 32.477 79.653 36.434 72.947 40.175 59.175 47.858 54.846 61.685 53.5 68.905 56.829 63.958 63.006 55.979 69.893 52.996z" data-fill-palette-color="accent"></path><path fill="#000000" d="M47.44 70.077L45.544 69.733C44.862 69.609 28.695 66.585 15.847 56.128 9.146 50.673 5.144 41.937 5.144 32.761 5.143 25.056 7.996 18.315 12.97 14.265L14.494 13.024 14.595 14.987C14.79 18.794 17.465 19.962 21.513 21.728 23.107 22.423 24.914 23.212 26.776 24.27 45.559 34.941 46.681 59.352 46.719 60.384L46.878 64.644 44.846 60.897C44.778 60.771 39.532 51.204 32.517 45.529 39.976 54.174 46.293 67.616 46.626 68.331zM12.903 17.017C9.218 20.757 7.136 26.386 7.137 32.761 7.137 41.344 10.865 49.502 17.106 54.582 26.985 62.622 39.207 66.186 43.919 67.333 41.239 61.974 33.015 46.473 25.343 41.662L19.9 38.249 26.121 39.852C33.92 41.862 40.745 50.738 44.204 56.005 42.972 48.507 38.911 33.458 25.79 26.003 24.019 24.997 22.263 24.231 20.713 23.555 17.092 21.974 13.894 20.579 12.903 17.017" data-fill-palette-color="accent"></path></svg></g></svg></g><g><rect width="76.8514138782147" height="5.3668203544915976" y="146.1217991051279" x="297.4717400235083" fill="#000000" data-fill-palette-color="accent"></rect><rect width="76.8514138782147" height="5.3668203544915976" y="146.1217991051279" x="21.196846098277007" fill="#000000" data-fill-palette-color="accent"></rect><rect width="76.8514138782147" height="5.3668203544915976" y="135.38815839614472" x="297.4717400235083" fill="#000000" data-fill-palette-color="accent"></rect><rect width="76.8514138782147" height="5.3668203544915976" y="135.38815839614472" x="21.196846098277007" fill="#000000" data-fill-palette-color="accent"></rect></g></svg></g><defs></defs></svg><rect width="353.12630780344597" height="247.2" fill="none" stroke="none" visibility="hidden"></rect></g></svg></g></svg>